<svg width="825" height="476" viewBox="0 0 825 476" fill="none" xmlns="http://www.w3.org/2000/svg">
<g clip-path="url(#clip0_107_1293)">
<path d="M-791.563 8.31032C-797.551 39.0388 -791.7 74.1283 -774.762 100.413C-732.262 166.382 -638.419 162.415 -570.964 150.281C-428.813 124.728 -293.525 68.7128 -150.714 44.1658C-18.8461 21.4954 133.925 17.9962 235.07 120.424C327.198 213.716 364.412 361.159 296.944 478.555C258.963 544.6 159.515 637.415 74.8315 600.652C7.80977 571.547 58.5407 483.222 88.2967 445.778C149.757 368.438 243.483 314.538 339.353 293.574C472.273 264.554 622.259 299.79 729.737 382.933C775.173 418.121 820.396 465.537 843.412 519.311C848.006 530.012 873.426 529.322 867.62 515.771C798.33 353.808 597.665 266.246 432.025 264.488C323.371 263.313 215.287 302.042 130.554 369.838C78.7173 411.333 8.48874 482.634 16.8466 556.155C25.0919 628.808 115.685 634.708 170.235 616.671C266.646 584.806 340.057 490.328 354.976 391.187C374.255 263.013 300.318 124.952 189.807 60.5445C69.3315 -9.68403 -81.5145 7.79757 -211.77 35.4423C-294.552 53.0225 -375.845 76.8748 -457.209 99.9579C-530.982 120.863 -617.36 153.192 -694.847 132.962C-748.025 119.099 -776.584 67.9642 -766.213 14.7397C-763.814 2.43199 -789.19 -3.85958 -791.563 8.31032Z" fill="url(#paint0_linear_107_1293)"/>
</g>
<defs>
<linearGradient id="paint0_linear_107_1293" x1="-654" y1="83.5" x2="940" y2="476" gradientUnits="userSpaceOnUse">
<stop stop-color="white" stop-opacity="0"/>
<stop offset="0.479722" stop-color="#F37362"/>
<stop offset="0.905" stop-color="white" stop-opacity="0"/>
</linearGradient>
<clipPath id="clip0_107_1293">
<rect width="825" height="476" fill="white"/>
</clipPath>
</defs>
</svg>
